# xmcd
#
# Track frame offsets: 
#        150
#        15365
#        35842
#        53530
#        72985
#        95722
#        106470
#        137522
#        157555
#        175105
#
# Disc length: 2583 seconds
#
# Revision: 0
# Processed by: cddbd v1.5.2PL0 Copyright (c) Steve Scherf et al.
# Submitted via: ExactAudioCopy v0.95b4
#
DISCID=750a150a
DTITLE=Jean-Pierre Saindon and Jean St-Jules - Initiations
DYEAR=1994
DGENRE=Classical Blues
TTITLE0=Tensions
TTITLE1=Number One
TTITLE2=A night in Tunisia
TTITLE3=Blue Bossa
TTITLE4=Solitude
TTITLE5=Swingin Sheppard Blues
TTITLE6=Asian Blue
TTITLE7=Morning
TTITLE8=Spain
TTITLE9=Rit Variation
EXTD=
EXTT0=
EXTT1=
EXTT2=
EXTT3=
EXTT4=
EXTT5=
EXTT6=
EXTT7=
EXTT8=
EXTT9=
PLAYORDER=
